<mxfile host="app.diagrams.net" agent="Mozilla/5.0 (Windows NT 10.0; Win64; x64) AppleWebKit/537.36 (KHTML, like Gecko) Chrome/138.0.0.0 Safari/537.36" version="27.2.0">
  <diagram name="AgriSmart-Enhanced-Architecture" id="agrismart-drone-pro-v2">
    <mxGraphModel dx="2066" dy="1137" grid="1" gridSize="10" guides="1" tooltips="1" connect="1" arrows="1" fold="1" page="1" pageScale="1" pageWidth="1400" pageHeight="900" math="0" shadow="0">
      <root>
        <mxCell id="0" />
        <mxCell id="1" parent="0" />
        <mxCell id="2" value="&amp;nbsp;System Architecture" style="text;html=1;strokeColor=none;fillColor=none;align=center;verticalAlign=middle;whiteSpace=wrap;rounded=0;fontSize=24;fontStyle=1" parent="1" vertex="1">
          <mxGeometry x="450" y="20" width="500" height="40" as="geometry" />
        </mxCell>
        <mxCell id="3" value="" style="rounded=1;whiteSpace=wrap;html=1;fillColor=#f5f5f5;strokeColor=#666666;strokeWidth=2;dashed=1" parent="1" vertex="1">
          <mxGeometry x="40" y="80" width="1320" height="780" as="geometry" />
        </mxCell>
        <mxCell id="4" value="Flight Controller&lt;br&gt;Pixhawk 6X&lt;br&gt;ARM Cortex-M7" style="rounded=1;whiteSpace=wrap;html=1;fillColor=#dae8fc;strokeColor=#6c8ebf;fontStyle=1;fontSize=12" parent="1" vertex="1">
          <mxGeometry x="620" y="400" width="140" height="80" as="geometry" />
        </mxCell>
        <mxCell id="5" value="Motor System&lt;br&gt;X8 Configuration&lt;br&gt;8x ESC 60A&lt;br&gt;10kW Brushless" style="rounded=1;whiteSpace=wrap;html=1;fillColor=#d5e8d4;strokeColor=#82b366;fontSize=12" parent="1" vertex="1">
          <mxGeometry x="880" y="320" width="140" height="90" as="geometry" />
        </mxCell>
        <mxCell id="6" value="AI Processing&lt;br&gt;NVIDIA Jetson Xavier&lt;br&gt;21 TOPS&lt;br&gt;&lt;font size=&quot;1&quot;&gt;• Crop Recognition&lt;br&gt;• Disease Detection&lt;br&gt;• Weed ID&lt;br&gt;• Yield Mapping&lt;/font&gt;" style="rounded=1;whiteSpace=wrap;html=1;fillColor=#ffe6cc;strokeColor=#d79b00;fontStyle=1;fontSize=12" parent="1" vertex="1">
          <mxGeometry x="320" y="320" width="160" height="120" as="geometry" />
        </mxCell>
        <mxCell id="7" value="RTK GPS&lt;br&gt;±2.5cm accuracy&lt;br&gt;D-RTK Module" style="rounded=1;whiteSpace=wrap;html=1;fillColor=#e1d5e7;strokeColor=#9673a6;fontSize=12" parent="1" vertex="1">
          <mxGeometry x="120" y="200" width="130" height="70" as="geometry" />
        </mxCell>
        <mxCell id="8" value="360° Spherical Radar&lt;br&gt;Obstacle Detection&lt;br&gt;mmWave 77GHz" style="rounded=1;whiteSpace=wrap;html=1;fillColor=#e1d5e7;strokeColor=#9673a6;fontSize=12" parent="1" vertex="1">
          <mxGeometry x="280" y="200" width="150" height="70" as="geometry" />
        </mxCell>
        <mxCell id="9" value="Dual FPV Camera&lt;br&gt;4K Front &amp; Rear&lt;br&gt;CSI Interface" style="rounded=1;whiteSpace=wrap;html=1;fillColor=#e1d5e7;strokeColor=#9673a6;fontSize=12" parent="1" vertex="1">
          <mxGeometry x="460" y="200" width="130" height="70" as="geometry" />
        </mxCell>
        <mxCell id="10" value="Height Sensor&lt;br&gt;Ultrasonic + Optical&lt;br&gt;Terrain Following" style="rounded=1;whiteSpace=wrap;html=1;fillColor=#e1d5e7;strokeColor=#9673a6;fontSize=12" parent="1" vertex="1">
          <mxGeometry x="620" y="200" width="140" height="70" as="geometry" />
        </mxCell>
        <mxCell id="11" value="Communication&lt;br&gt;915MHz Telemetry&lt;br&gt;5.8GHz Video&lt;br&gt;5km Range" style="rounded=1;whiteSpace=wrap;html=1;fillColor=#e1d5e7;strokeColor=#9673a6;fontSize=12" parent="1" vertex="1">
          <mxGeometry x="790" y="200" width="140" height="80" as="geometry" />
        </mxCell>
        <mxCell id="12" value="Spray System&lt;br&gt;30L Tank&lt;br&gt;4 Nozzles&lt;br&gt;Variable Rate" style="rounded=1;whiteSpace=wrap;html=1;fillColor=#fff2cc;strokeColor=#d6b656;fontSize=12" parent="1" vertex="1">
          <mxGeometry x="320" y="550" width="130" height="90" as="geometry" />
        </mxCell>
        <mxCell id="13" value="Granule System&lt;br&gt;30kg Hopper&lt;br&gt;Centrifugal Spreader&lt;br&gt;Variable Rate" style="rounded=1;whiteSpace=wrap;html=1;fillColor=#fff2cc;strokeColor=#d6b656;fontSize=12" parent="1" vertex="1">
          <mxGeometry x="480" y="550" width="140" height="90" as="geometry" />
        </mxCell>
        <mxCell id="14" value="Power System&lt;br&gt;LiPo 6S 22000mAh&lt;br&gt;Dual Battery&lt;br&gt;Smart BMS" style="rounded=1;whiteSpace=wrap;html=1;fillColor=#f8cecc;strokeColor=#b85450;fontStyle=1;fontSize=12" parent="1" vertex="1">
          <mxGeometry x="880" y="480" width="140" height="90" as="geometry" />
        </mxCell>
        <mxCell id="15" value="Ground Station&lt;br&gt;12.1&quot; Touch Screen&lt;br&gt;Android OS&lt;br&gt;Mission Planning" style="rounded=1;whiteSpace=wrap;html=1;fillColor=#d4e1f5;strokeColor=#6c8ebf;fontSize=12" parent="1" vertex="1">
          <mxGeometry x="1080" y="400" width="150" height="90" as="geometry" />
        </mxCell>
        <mxCell id="16" value="Emergency Systems&lt;br&gt;• Parachute Deploy&lt;br&gt;• RTH Function&lt;br&gt;• Low Battery RTH&lt;br&gt;• Geofencing" style="rounded=1;whiteSpace=wrap;html=1;fillColor=#ffcccc;strokeColor=#ff6666;fontSize=11" parent="1" vertex="1">
          <mxGeometry x="650" y="550" width="140" height="90" as="geometry" />
        </mxCell>
        <mxCell id="17" value="Key Specifications&lt;br&gt;• Flight Time: 18-22 min&lt;br&gt;• Max Speed: 10 m/s&lt;br&gt;• Wind Resistance: 12 m/s&lt;br&gt;• Coverage: 10-15 ha/hr&lt;br&gt;• IP67 Protection&lt;br&gt;• Operating Temp: -10°C to 45°C" style="rounded=0;whiteSpace=wrap;html=1;fillColor=#e6f3ff;strokeColor=#4d90fe;fontSize=11;align=left" parent="1" vertex="1">
          <mxGeometry x="60" y="700" width="200" height="120" as="geometry" />
        </mxCell>
        <mxCell id="23" value="PWM" style="endArrow=classic;html=1;strokeWidth=2;strokeColor=#000000;" parent="1" source="4" target="5" edge="1">
          <mxGeometry relative="1" as="geometry" />
        </mxCell>
        <mxCell id="24" value="I2C" style="endArrow=classic;html=1;strokeWidth=1;strokeColor=#666666;dashed=1;" parent="1" source="7" target="4" edge="1">
          <mxGeometry relative="1" as="geometry" />
        </mxCell>
        <mxCell id="25" value="I2C" style="endArrow=classic;html=1;strokeWidth=1;strokeColor=#666666;dashed=1;" parent="1" source="8" target="4" edge="1">
          <mxGeometry relative="1" as="geometry" />
        </mxCell>
        <mxCell id="26" value="I2C" style="endArrow=classic;html=1;strokeWidth=1;strokeColor=#666666;dashed=1;" parent="1" source="10" target="4" edge="1">
          <mxGeometry relative="1" as="geometry" />
        </mxCell>
        <mxCell id="27" value="CSI/USB3" style="endArrow=classic;html=1;strokeWidth=3;strokeColor=#FF8C00;" parent="1" source="9" target="6" edge="1">
          <mxGeometry relative="1" as="geometry" />
        </mxCell>
        <mxCell id="28" value="SPI" style="endArrow=classic;html=1;strokeWidth=3;strokeColor=#FF8C00;" parent="1" source="6" target="4" edge="1">
          <mxGeometry relative="1" as="geometry" />
        </mxCell>
        <mxCell id="29" value="UART" style="endArrow=classic;html=1;strokeWidth=2;strokeColor=#0066CC;dashed=1;" parent="1" source="11" target="4" edge="1">
          <mxGeometry relative="1" as="geometry" />
        </mxCell>
        <mxCell id="30" style="endArrow=classic;html=1;strokeWidth=3;strokeColor=#FF0000;" parent="1" source="14" target="4" edge="1">
          <mxGeometry relative="1" as="geometry" />
        </mxCell>
        <mxCell id="31" style="endArrow=classic;html=1;strokeWidth=3;strokeColor=#FF0000;" parent="1" source="14" target="5" edge="1">
          <mxGeometry relative="1" as="geometry" />
        </mxCell>
        <mxCell id="32" value="CAN" style="endArrow=classic;html=1;strokeWidth=2;strokeColor=#666666;" parent="1" source="4" target="12" edge="1">
          <mxGeometry relative="1" as="geometry" />
        </mxCell>
        <mxCell id="33" value="CAN" style="endArrow=classic;html=1;strokeWidth=2;strokeColor=#666666;" parent="1" source="4" target="13" edge="1">
          <mxGeometry relative="1" as="geometry" />
        </mxCell>
        <mxCell id="34" style="endArrow=classic;html=1;strokeWidth=2;strokeColor=#666666;" parent="1" source="4" target="16" edge="1">
          <mxGeometry relative="1" as="geometry" />
        </mxCell>
        <mxCell id="35" style="endArrow=classic;startArrow=classic;html=1;strokeWidth=3;strokeColor=#0066CC;" parent="1" source="11" target="15" edge="1">
          <mxGeometry relative="1" as="geometry" />
        </mxCell>
        <mxCell id="36" value="Legend:" style="text;html=1;strokeColor=none;fillColor=none;align=left;verticalAlign=middle;whiteSpace=wrap;rounded=0;fontStyle=1;fontSize=12" parent="1" vertex="1">
          <mxGeometry x="300" y="700" width="60" height="20" as="geometry" />
        </mxCell>
        <mxCell id="37" value="Control System" style="rounded=1;whiteSpace=wrap;html=1;fillColor=#dae8fc;strokeColor=#6c8ebf;fontSize=10" parent="1" vertex="1">
          <mxGeometry x="300" y="730" width="90" height="25" as="geometry" />
        </mxCell>
        <mxCell id="38" value="Sensors" style="rounded=1;whiteSpace=wrap;html=1;fillColor=#e1d5e7;strokeColor=#9673a6;fontSize=10" parent="1" vertex="1">
          <mxGeometry x="400" y="730" width="70" height="25" as="geometry" />
        </mxCell>
        <mxCell id="39" value="AI/Computing" style="rounded=1;whiteSpace=wrap;html=1;fillColor=#ffe6cc;strokeColor=#d79b00;fontSize=10" parent="1" vertex="1">
          <mxGeometry x="480" y="730" width="90" height="25" as="geometry" />
        </mxCell>
        <mxCell id="40" value="Power" style="rounded=1;whiteSpace=wrap;html=1;fillColor=#f8cecc;strokeColor=#b85450;fontSize=10" parent="1" vertex="1">
          <mxGeometry x="580" y="730" width="60" height="25" as="geometry" />
        </mxCell>
        <mxCell id="41" value="Payload" style="rounded=1;whiteSpace=wrap;html=1;fillColor=#fff2cc;strokeColor=#d6b656;fontSize=10" parent="1" vertex="1">
          <mxGeometry x="650" y="730" width="70" height="25" as="geometry" />
        </mxCell>
        <mxCell id="42" value="Emergency" style="rounded=1;whiteSpace=wrap;html=1;fillColor=#ffcccc;strokeColor=#ff6666;fontSize=10" parent="1" vertex="1">
          <mxGeometry x="730" y="730" width="80" height="25" as="geometry" />
        </mxCell>
        <mxCell id="43" value="Line Types:" style="text;html=1;strokeColor=none;fillColor=none;align=left;verticalAlign=middle;whiteSpace=wrap;rounded=0;fontStyle=1;fontSize=12" parent="1" vertex="1">
          <mxGeometry x="300" y="770" width="80" height="20" as="geometry" />
        </mxCell>
        <mxCell id="44" value="" style="endArrow=classic;html=1;strokeWidth=3;strokeColor=#FF0000;" parent="1" edge="1">
          <mxGeometry x="300" y="795" width="50" height="10" as="geometry">
            <mxPoint x="300" y="800" as="sourcePoint" />
            <mxPoint x="350" y="800" as="targetPoint" />
          </mxGeometry>
        </mxCell>
        <mxCell id="45" value="Power" style="text;html=1;strokeColor=none;fillColor=none;align=left;verticalAlign=middle;whiteSpace=wrap;rounded=0;fontSize=10" parent="1" vertex="1">
          <mxGeometry x="360" y="790" width="40" height="20" as="geometry" />
        </mxCell>
        <mxCell id="46" value="" style="endArrow=classic;html=1;strokeWidth=1;strokeColor=#666666;dashed=1;" parent="1" edge="1">
          <mxGeometry x="420" y="795" width="50" height="10" as="geometry">
            <mxPoint x="420" y="800" as="sourcePoint" />
            <mxPoint x="470" y="800" as="targetPoint" />
          </mxGeometry>
        </mxCell>
        <mxCell id="47" value="Data" style="text;html=1;strokeColor=none;fillColor=none;align=left;verticalAlign=middle;whiteSpace=wrap;rounded=0;fontSize=10" parent="1" vertex="1">
          <mxGeometry x="480" y="790" width="40" height="20" as="geometry" />
        </mxCell>
        <mxCell id="48" value="" style="endArrow=classic;html=1;strokeWidth=3;strokeColor=#FF8C00;" parent="1" edge="1">
          <mxGeometry x="540" y="795" width="50" height="10" as="geometry">
            <mxPoint x="540" y="800" as="sourcePoint" />
            <mxPoint x="590" y="800" as="targetPoint" />
          </mxGeometry>
        </mxCell>
        <mxCell id="49" value="High Bandwidth" style="text;html=1;strokeColor=none;fillColor=none;align=left;verticalAlign=middle;whiteSpace=wrap;rounded=0;fontSize=10" parent="1" vertex="1">
          <mxGeometry x="600" y="790" width="90" height="20" as="geometry" />
        </mxCell>
      </root>
    </mxGraphModel>
  </diagram>
</mxfile>
